<mxfile host="app.diagrams.net" modified="2023-07-31T02:46:30.384Z" agent="Mozilla/5.0 (Macintosh; Intel Mac OS X 10_15_7) AppleWebKit/537.36 (KHTML, like Gecko) Chrome/114.0.0.0 Safari/537.36" etag="gliDmUk0qnmuPHDLA22-" version="21.6.5" type="github">
  <diagram name="第 1 页" id="YpV4BYqwXD7lAimq6Zw4">
    <mxGraphModel dx="1006" dy="541" grid="1" gridSize="10" guides="1" tooltips="1" connect="1" arrows="1" fold="1" page="1" pageScale="1" pageWidth="950" pageHeight="550" math="0" shadow="0">
      <root>
        <mxCell id="0" />
        <mxCell id="1" parent="0" />
        <mxCell id="1cPQjbSQhpeD4azFQnfo-101" value="" style="rounded=0;whiteSpace=wrap;html=1;fillColor=#ffe6cc;strokeColor=#d79b00;" parent="1" vertex="1">
          <mxGeometry x="371" y="70" width="399" height="320" as="geometry" />
        </mxCell>
        <mxCell id="1cPQjbSQhpeD4azFQnfo-99" value="" style="rounded=0;whiteSpace=wrap;html=1;fillColor=#dae8fc;strokeColor=#6c8ebf;" parent="1" vertex="1">
          <mxGeometry x="40" y="70" width="310" height="320" as="geometry" />
        </mxCell>
        <mxCell id="siJhHcLZKbI5iKl3aMoU-2" value="&lt;font style=&quot;font-size: 16px;&quot;&gt;Shared Cache&lt;/font&gt;" style="rounded=1;whiteSpace=wrap;html=1;" parent="1" vertex="1">
          <mxGeometry x="54" y="295.1724137931035" width="276" height="67.24137931034483" as="geometry" />
        </mxCell>
        <mxCell id="1cPQjbSQhpeD4azFQnfo-12" value="&lt;font style=&quot;font-size: 14px;&quot;&gt;DRAM&lt;/font&gt;" style="rounded=1;whiteSpace=wrap;html=1;fillColor=#d5e8d4;strokeColor=#82b366;" parent="1" vertex="1">
          <mxGeometry x="40" y="450" width="730" height="60" as="geometry" />
        </mxCell>
        <mxCell id="1cPQjbSQhpeD4azFQnfo-16" value="" style="group" parent="1" vertex="1" connectable="0">
          <mxGeometry x="56" y="81.72" width="80" height="200.00000000000003" as="geometry" />
        </mxCell>
        <mxCell id="siJhHcLZKbI5iKl3aMoU-3" value="&lt;font style=&quot;font-size: 14px;&quot;&gt;Core&lt;/font&gt;" style="rounded=1;whiteSpace=wrap;html=1;spacingTop=0;spacingBottom=120;arcSize=20;spacingLeft=0;" parent="1cPQjbSQhpeD4azFQnfo-16" vertex="1">
          <mxGeometry width="80" height="200" as="geometry" />
        </mxCell>
        <mxCell id="1cPQjbSQhpeD4azFQnfo-1" value="&lt;font style=&quot;font-size: 14px;&quot;&gt;Thread Local&lt;/font&gt;" style="rounded=1;whiteSpace=wrap;html=1;fontSize=6;" parent="1cPQjbSQhpeD4azFQnfo-16" vertex="1">
          <mxGeometry x="6.400000000000006" y="146.2110344827586" width="67.2" height="40.3448275862069" as="geometry" />
        </mxCell>
        <mxCell id="1cPQjbSQhpeD4azFQnfo-2" value="" style="curved=1;endArrow=none;html=1;rounded=0;endFill=0;" parent="1cPQjbSQhpeD4azFQnfo-16" edge="1">
          <mxGeometry width="50" height="50" relative="1" as="geometry">
            <mxPoint x="34" y="119.3144827586207" as="sourcePoint" />
            <mxPoint x="46" y="65.52137931034483" as="targetPoint" />
            <Array as="points">
              <mxPoint x="58" y="105.86620689655174" />
              <mxPoint x="22" y="78.96965517241378" />
            </Array>
          </mxGeometry>
        </mxCell>
        <mxCell id="1cPQjbSQhpeD4azFQnfo-17" value="" style="group" parent="1" vertex="1" connectable="0">
          <mxGeometry x="154" y="80" width="80" height="200.00000000000003" as="geometry" />
        </mxCell>
        <mxCell id="1cPQjbSQhpeD4azFQnfo-18" value="&lt;font style=&quot;font-size: 14px;&quot;&gt;Core&lt;/font&gt;" style="rounded=1;whiteSpace=wrap;html=1;spacingTop=0;spacingBottom=120;arcSize=20;spacingLeft=0;" parent="1cPQjbSQhpeD4azFQnfo-17" vertex="1">
          <mxGeometry width="80" height="200" as="geometry" />
        </mxCell>
        <mxCell id="1cPQjbSQhpeD4azFQnfo-19" value="&lt;font style=&quot;font-size: 14px;&quot;&gt;Thread Local&lt;/font&gt;" style="rounded=1;whiteSpace=wrap;html=1;fontSize=6;" parent="1cPQjbSQhpeD4azFQnfo-17" vertex="1">
          <mxGeometry x="6.400000000000006" y="146.2110344827586" width="67.2" height="40.3448275862069" as="geometry" />
        </mxCell>
        <mxCell id="1cPQjbSQhpeD4azFQnfo-20" value="" style="curved=1;endArrow=none;html=1;rounded=0;endFill=0;" parent="1cPQjbSQhpeD4azFQnfo-17" edge="1">
          <mxGeometry width="50" height="50" relative="1" as="geometry">
            <mxPoint x="34" y="119.3144827586207" as="sourcePoint" />
            <mxPoint x="46" y="65.52137931034483" as="targetPoint" />
            <Array as="points">
              <mxPoint x="58" y="105.86620689655174" />
              <mxPoint x="22" y="78.96965517241378" />
            </Array>
          </mxGeometry>
        </mxCell>
        <mxCell id="1cPQjbSQhpeD4azFQnfo-21" value="" style="group" parent="1" vertex="1" connectable="0">
          <mxGeometry x="250" y="80" width="80" height="200.00000000000003" as="geometry" />
        </mxCell>
        <mxCell id="1cPQjbSQhpeD4azFQnfo-22" value="&lt;font style=&quot;font-size: 14px;&quot;&gt;Core&lt;/font&gt;" style="rounded=1;whiteSpace=wrap;html=1;spacingTop=0;spacingBottom=120;arcSize=20;spacingLeft=0;" parent="1cPQjbSQhpeD4azFQnfo-21" vertex="1">
          <mxGeometry width="80" height="200" as="geometry" />
        </mxCell>
        <mxCell id="1cPQjbSQhpeD4azFQnfo-23" value="&lt;font style=&quot;font-size: 14px;&quot;&gt;Thread Local&lt;/font&gt;" style="rounded=1;whiteSpace=wrap;html=1;fontSize=6;" parent="1cPQjbSQhpeD4azFQnfo-21" vertex="1">
          <mxGeometry x="6.400000000000006" y="146.2110344827586" width="67.2" height="40.3448275862069" as="geometry" />
        </mxCell>
        <mxCell id="1cPQjbSQhpeD4azFQnfo-24" value="" style="curved=1;endArrow=none;html=1;rounded=0;endFill=0;" parent="1cPQjbSQhpeD4azFQnfo-21" edge="1">
          <mxGeometry width="50" height="50" relative="1" as="geometry">
            <mxPoint x="34" y="119.3144827586207" as="sourcePoint" />
            <mxPoint x="46" y="65.52137931034483" as="targetPoint" />
            <Array as="points">
              <mxPoint x="58" y="105.86620689655174" />
              <mxPoint x="22" y="78.96965517241378" />
            </Array>
          </mxGeometry>
        </mxCell>
        <mxCell id="1cPQjbSQhpeD4azFQnfo-42" value="" style="group" parent="1" vertex="1" connectable="0">
          <mxGeometry x="380" y="80" width="176" height="80" as="geometry" />
        </mxCell>
        <mxCell id="1cPQjbSQhpeD4azFQnfo-15" value="" style="rounded=1;whiteSpace=wrap;html=1;movable=1;resizable=1;rotatable=1;deletable=1;editable=1;locked=0;connectable=1;" parent="1cPQjbSQhpeD4azFQnfo-42" vertex="1">
          <mxGeometry width="176" height="80" as="geometry" />
        </mxCell>
        <mxCell id="1cPQjbSQhpeD4azFQnfo-26" value="&lt;font style=&quot;font-size: 11px;&quot;&gt;DPU Set&lt;/font&gt;" style="text;html=1;strokeColor=none;fillColor=none;align=center;verticalAlign=middle;whiteSpace=wrap;rounded=0;fontSize=8;" parent="1cPQjbSQhpeD4azFQnfo-42" vertex="1">
          <mxGeometry width="60" height="30" as="geometry" />
        </mxCell>
        <mxCell id="1cPQjbSQhpeD4azFQnfo-27" value="Core" style="rounded=1;whiteSpace=wrap;html=1;" parent="1cPQjbSQhpeD4azFQnfo-42" vertex="1">
          <mxGeometry x="11" y="30" width="46" height="40" as="geometry" />
        </mxCell>
        <mxCell id="1cPQjbSQhpeD4azFQnfo-28" value="Core" style="rounded=1;whiteSpace=wrap;html=1;" parent="1cPQjbSQhpeD4azFQnfo-42" vertex="1">
          <mxGeometry x="65" y="30" width="46" height="40" as="geometry" />
        </mxCell>
        <mxCell id="1cPQjbSQhpeD4azFQnfo-29" value="Core" style="rounded=1;whiteSpace=wrap;html=1;" parent="1cPQjbSQhpeD4azFQnfo-42" vertex="1">
          <mxGeometry x="120" y="30" width="46" height="40" as="geometry" />
        </mxCell>
        <mxCell id="1cPQjbSQhpeD4azFQnfo-43" value="" style="group" parent="1" vertex="1" connectable="0">
          <mxGeometry x="580" y="80" width="176" height="80" as="geometry" />
        </mxCell>
        <mxCell id="1cPQjbSQhpeD4azFQnfo-44" value="" style="rounded=1;whiteSpace=wrap;html=1;movable=1;resizable=1;rotatable=1;deletable=1;editable=1;locked=0;connectable=1;" parent="1cPQjbSQhpeD4azFQnfo-43" vertex="1">
          <mxGeometry width="176" height="80" as="geometry" />
        </mxCell>
        <mxCell id="1cPQjbSQhpeD4azFQnfo-45" value="&lt;font style=&quot;font-size: 11px;&quot;&gt;DPU Set&lt;/font&gt;" style="text;html=1;strokeColor=none;fillColor=none;align=center;verticalAlign=middle;whiteSpace=wrap;rounded=0;fontSize=8;" parent="1cPQjbSQhpeD4azFQnfo-43" vertex="1">
          <mxGeometry width="60" height="30" as="geometry" />
        </mxCell>
        <mxCell id="1cPQjbSQhpeD4azFQnfo-46" value="Core" style="rounded=1;whiteSpace=wrap;html=1;" parent="1cPQjbSQhpeD4azFQnfo-43" vertex="1">
          <mxGeometry x="11" y="30" width="46" height="40" as="geometry" />
        </mxCell>
        <mxCell id="1cPQjbSQhpeD4azFQnfo-47" value="Core" style="rounded=1;whiteSpace=wrap;html=1;" parent="1cPQjbSQhpeD4azFQnfo-43" vertex="1">
          <mxGeometry x="65" y="30" width="46" height="40" as="geometry" />
        </mxCell>
        <mxCell id="1cPQjbSQhpeD4azFQnfo-48" value="Core" style="rounded=1;whiteSpace=wrap;html=1;" parent="1cPQjbSQhpeD4azFQnfo-43" vertex="1">
          <mxGeometry x="120" y="30" width="46" height="40" as="geometry" />
        </mxCell>
        <mxCell id="1cPQjbSQhpeD4azFQnfo-49" value="" style="group" parent="1" vertex="1" connectable="0">
          <mxGeometry x="380" y="180" width="176" height="80" as="geometry" />
        </mxCell>
        <mxCell id="1cPQjbSQhpeD4azFQnfo-50" value="" style="rounded=1;whiteSpace=wrap;html=1;movable=1;resizable=1;rotatable=1;deletable=1;editable=1;locked=0;connectable=1;" parent="1cPQjbSQhpeD4azFQnfo-49" vertex="1">
          <mxGeometry width="176" height="80" as="geometry" />
        </mxCell>
        <mxCell id="1cPQjbSQhpeD4azFQnfo-51" value="&lt;font style=&quot;font-size: 11px;&quot;&gt;DPU Set&lt;/font&gt;" style="text;html=1;strokeColor=none;fillColor=none;align=center;verticalAlign=middle;whiteSpace=wrap;rounded=0;fontSize=8;" parent="1cPQjbSQhpeD4azFQnfo-49" vertex="1">
          <mxGeometry width="60" height="30" as="geometry" />
        </mxCell>
        <mxCell id="1cPQjbSQhpeD4azFQnfo-52" value="Core" style="rounded=1;whiteSpace=wrap;html=1;" parent="1cPQjbSQhpeD4azFQnfo-49" vertex="1">
          <mxGeometry x="11" y="30" width="46" height="40" as="geometry" />
        </mxCell>
        <mxCell id="1cPQjbSQhpeD4azFQnfo-53" value="Core" style="rounded=1;whiteSpace=wrap;html=1;" parent="1cPQjbSQhpeD4azFQnfo-49" vertex="1">
          <mxGeometry x="65" y="30" width="46" height="40" as="geometry" />
        </mxCell>
        <mxCell id="1cPQjbSQhpeD4azFQnfo-54" value="Core" style="rounded=1;whiteSpace=wrap;html=1;" parent="1cPQjbSQhpeD4azFQnfo-49" vertex="1">
          <mxGeometry x="120" y="30" width="46" height="40" as="geometry" />
        </mxCell>
        <mxCell id="1cPQjbSQhpeD4azFQnfo-55" value="" style="group" parent="1" vertex="1" connectable="0">
          <mxGeometry x="580" y="180" width="176" height="80" as="geometry" />
        </mxCell>
        <mxCell id="1cPQjbSQhpeD4azFQnfo-56" value="" style="rounded=1;whiteSpace=wrap;html=1;movable=1;resizable=1;rotatable=1;deletable=1;editable=1;locked=0;connectable=1;" parent="1cPQjbSQhpeD4azFQnfo-55" vertex="1">
          <mxGeometry width="176" height="80" as="geometry" />
        </mxCell>
        <mxCell id="1cPQjbSQhpeD4azFQnfo-57" value="&lt;font style=&quot;font-size: 11px;&quot;&gt;DPU Set&lt;/font&gt;" style="text;html=1;strokeColor=none;fillColor=none;align=center;verticalAlign=middle;whiteSpace=wrap;rounded=0;fontSize=8;" parent="1cPQjbSQhpeD4azFQnfo-55" vertex="1">
          <mxGeometry width="60" height="30" as="geometry" />
        </mxCell>
        <mxCell id="1cPQjbSQhpeD4azFQnfo-58" value="Core" style="rounded=1;whiteSpace=wrap;html=1;" parent="1cPQjbSQhpeD4azFQnfo-55" vertex="1">
          <mxGeometry x="11" y="30" width="46" height="40" as="geometry" />
        </mxCell>
        <mxCell id="1cPQjbSQhpeD4azFQnfo-59" value="Core" style="rounded=1;whiteSpace=wrap;html=1;" parent="1cPQjbSQhpeD4azFQnfo-55" vertex="1">
          <mxGeometry x="65" y="30" width="46" height="40" as="geometry" />
        </mxCell>
        <mxCell id="1cPQjbSQhpeD4azFQnfo-60" value="Core" style="rounded=1;whiteSpace=wrap;html=1;" parent="1cPQjbSQhpeD4azFQnfo-55" vertex="1">
          <mxGeometry x="120" y="30" width="46" height="40" as="geometry" />
        </mxCell>
        <mxCell id="1cPQjbSQhpeD4azFQnfo-61" value="" style="group" parent="1" vertex="1" connectable="0">
          <mxGeometry x="380" y="280" width="176" height="80" as="geometry" />
        </mxCell>
        <mxCell id="1cPQjbSQhpeD4azFQnfo-62" value="" style="rounded=1;whiteSpace=wrap;html=1;movable=1;resizable=1;rotatable=1;deletable=1;editable=1;locked=0;connectable=1;" parent="1cPQjbSQhpeD4azFQnfo-61" vertex="1">
          <mxGeometry width="176" height="80" as="geometry" />
        </mxCell>
        <mxCell id="1cPQjbSQhpeD4azFQnfo-63" value="&lt;font style=&quot;font-size: 11px;&quot;&gt;DPU Set&lt;/font&gt;" style="text;html=1;strokeColor=none;fillColor=none;align=center;verticalAlign=middle;whiteSpace=wrap;rounded=0;fontSize=8;" parent="1cPQjbSQhpeD4azFQnfo-61" vertex="1">
          <mxGeometry width="60" height="30" as="geometry" />
        </mxCell>
        <mxCell id="1cPQjbSQhpeD4azFQnfo-64" value="Core" style="rounded=1;whiteSpace=wrap;html=1;" parent="1cPQjbSQhpeD4azFQnfo-61" vertex="1">
          <mxGeometry x="11" y="30" width="46" height="40" as="geometry" />
        </mxCell>
        <mxCell id="1cPQjbSQhpeD4azFQnfo-65" value="Core" style="rounded=1;whiteSpace=wrap;html=1;" parent="1cPQjbSQhpeD4azFQnfo-61" vertex="1">
          <mxGeometry x="65" y="30" width="46" height="40" as="geometry" />
        </mxCell>
        <mxCell id="1cPQjbSQhpeD4azFQnfo-66" value="Core" style="rounded=1;whiteSpace=wrap;html=1;" parent="1cPQjbSQhpeD4azFQnfo-61" vertex="1">
          <mxGeometry x="120" y="30" width="46" height="40" as="geometry" />
        </mxCell>
        <mxCell id="1cPQjbSQhpeD4azFQnfo-67" value="" style="group" parent="1" vertex="1" connectable="0">
          <mxGeometry x="580" y="280" width="176" height="80" as="geometry" />
        </mxCell>
        <mxCell id="1cPQjbSQhpeD4azFQnfo-68" value="" style="rounded=1;whiteSpace=wrap;html=1;movable=1;resizable=1;rotatable=1;deletable=1;editable=1;locked=0;connectable=1;" parent="1cPQjbSQhpeD4azFQnfo-67" vertex="1">
          <mxGeometry width="176" height="80" as="geometry" />
        </mxCell>
        <mxCell id="1cPQjbSQhpeD4azFQnfo-69" value="&lt;font style=&quot;font-size: 11px;&quot;&gt;DPU Set&lt;/font&gt;" style="text;html=1;strokeColor=none;fillColor=none;align=center;verticalAlign=middle;whiteSpace=wrap;rounded=0;fontSize=8;" parent="1cPQjbSQhpeD4azFQnfo-67" vertex="1">
          <mxGeometry width="60" height="30" as="geometry" />
        </mxCell>
        <mxCell id="1cPQjbSQhpeD4azFQnfo-70" value="Core" style="rounded=1;whiteSpace=wrap;html=1;" parent="1cPQjbSQhpeD4azFQnfo-67" vertex="1">
          <mxGeometry x="11" y="30" width="46" height="40" as="geometry" />
        </mxCell>
        <mxCell id="1cPQjbSQhpeD4azFQnfo-71" value="Core" style="rounded=1;whiteSpace=wrap;html=1;" parent="1cPQjbSQhpeD4azFQnfo-67" vertex="1">
          <mxGeometry x="65" y="30" width="46" height="40" as="geometry" />
        </mxCell>
        <mxCell id="1cPQjbSQhpeD4azFQnfo-72" value="Core" style="rounded=1;whiteSpace=wrap;html=1;" parent="1cPQjbSQhpeD4azFQnfo-67" vertex="1">
          <mxGeometry x="120" y="30" width="46" height="40" as="geometry" />
        </mxCell>
        <mxCell id="1cPQjbSQhpeD4azFQnfo-76" value="" style="edgeStyle=orthogonalEdgeStyle;rounded=0;orthogonalLoop=1;jettySize=auto;html=1;entryX=0.5;entryY=1;entryDx=0;entryDy=0;exitX=0.5;exitY=0;exitDx=0;exitDy=0;dashed=1;dashPattern=8 8;" parent="1" source="siJhHcLZKbI5iKl3aMoU-3" edge="1">
          <mxGeometry relative="1" as="geometry">
            <mxPoint x="464" y="80" as="targetPoint" />
            <Array as="points">
              <mxPoint x="96" y="40" />
              <mxPoint x="464" y="40" />
            </Array>
          </mxGeometry>
        </mxCell>
        <mxCell id="1cPQjbSQhpeD4azFQnfo-78" value="" style="edgeStyle=orthogonalEdgeStyle;rounded=0;orthogonalLoop=1;jettySize=auto;html=1;entryX=0.5;entryY=0;entryDx=0;entryDy=0;exitX=0.5;exitY=0;exitDx=0;exitDy=0;dashed=1;dashPattern=8 8;" parent="1" source="1cPQjbSQhpeD4azFQnfo-18" target="1cPQjbSQhpeD4azFQnfo-44" edge="1">
          <mxGeometry relative="1" as="geometry">
            <mxPoint x="220" y="80" as="sourcePoint" />
            <mxPoint x="572" y="78" as="targetPoint" />
            <Array as="points">
              <mxPoint x="190" y="80" />
              <mxPoint x="190" y="50" />
              <mxPoint x="668" y="50" />
            </Array>
          </mxGeometry>
        </mxCell>
        <mxCell id="1cPQjbSQhpeD4azFQnfo-94" value="" style="group" parent="1" vertex="1" connectable="0">
          <mxGeometry x="790" y="150" width="140" height="130" as="geometry" />
        </mxCell>
        <mxCell id="1cPQjbSQhpeD4azFQnfo-79" value="" style="rounded=1;whiteSpace=wrap;html=1;" parent="1cPQjbSQhpeD4azFQnfo-94" vertex="1">
          <mxGeometry width="125" height="130" as="geometry" />
        </mxCell>
        <mxCell id="1cPQjbSQhpeD4azFQnfo-80" value="MRAM" style="rounded=1;whiteSpace=wrap;html=1;" parent="1cPQjbSQhpeD4azFQnfo-94" vertex="1">
          <mxGeometry x="15" y="90" width="95" height="30" as="geometry" />
        </mxCell>
        <mxCell id="1cPQjbSQhpeD4azFQnfo-81" value="Cache" style="rounded=1;whiteSpace=wrap;html=1;" parent="1cPQjbSQhpeD4azFQnfo-94" vertex="1">
          <mxGeometry x="21.75" y="58.75" width="78.25" height="22.5" as="geometry" />
        </mxCell>
        <mxCell id="1cPQjbSQhpeD4azFQnfo-89" value="" style="curved=1;endArrow=none;html=1;rounded=0;endFill=0;" parent="1cPQjbSQhpeD4azFQnfo-94" edge="1">
          <mxGeometry width="50" height="50" relative="1" as="geometry">
            <mxPoint x="36" y="46.72000000000003" as="sourcePoint" />
            <mxPoint x="47" y="16.720000000000027" as="targetPoint" />
            <Array as="points">
              <mxPoint x="44" y="46.72000000000003" />
              <mxPoint x="34" y="16.720000000000027" />
            </Array>
          </mxGeometry>
        </mxCell>
        <mxCell id="1cPQjbSQhpeD4azFQnfo-92" value="" style="curved=1;endArrow=none;html=1;rounded=0;endFill=0;" parent="1cPQjbSQhpeD4azFQnfo-94" edge="1">
          <mxGeometry width="50" height="50" relative="1" as="geometry">
            <mxPoint x="58" y="46.72000000000003" as="sourcePoint" />
            <mxPoint x="69" y="16.720000000000027" as="targetPoint" />
            <Array as="points">
              <mxPoint x="66" y="46.72000000000003" />
              <mxPoint x="56" y="16.720000000000027" />
            </Array>
          </mxGeometry>
        </mxCell>
        <mxCell id="1cPQjbSQhpeD4azFQnfo-93" value="" style="curved=1;endArrow=none;html=1;rounded=0;endFill=0;spacingBottom=0;spacing=2;" parent="1cPQjbSQhpeD4azFQnfo-94" edge="1">
          <mxGeometry width="50" height="50" relative="1" as="geometry">
            <mxPoint x="82" y="46.72000000000003" as="sourcePoint" />
            <mxPoint x="93" y="16.720000000000027" as="targetPoint" />
            <Array as="points">
              <mxPoint x="90" y="46.72000000000003" />
              <mxPoint x="80" y="16.720000000000027" />
            </Array>
          </mxGeometry>
        </mxCell>
        <mxCell id="woqamysOv7D3Uq7dfl2v-13" value="&lt;h1&gt;&lt;font style=&quot;font-size: 16px;&quot;&gt;&lt;b&gt;④&lt;/b&gt;&lt;/font&gt;&lt;/h1&gt;" style="text;html=1;strokeColor=none;fillColor=none;align=center;verticalAlign=middle;whiteSpace=wrap;rounded=0;" parent="1cPQjbSQhpeD4azFQnfo-94" vertex="1">
          <mxGeometry x="80" width="60" height="30" as="geometry" />
        </mxCell>
        <mxCell id="1cPQjbSQhpeD4azFQnfo-95" value="" style="endArrow=none;dashed=1;html=1;rounded=0;exitX=1;exitY=0;exitDx=0;exitDy=0;entryX=0.059;entryY=0.023;entryDx=0;entryDy=0;entryPerimeter=0;" parent="1" source="1cPQjbSQhpeD4azFQnfo-60" target="1cPQjbSQhpeD4azFQnfo-79" edge="1">
          <mxGeometry width="50" height="50" relative="1" as="geometry">
            <mxPoint x="750" y="210" as="sourcePoint" />
            <mxPoint x="800" y="160" as="targetPoint" />
          </mxGeometry>
        </mxCell>
        <mxCell id="1cPQjbSQhpeD4azFQnfo-96" value="" style="endArrow=none;dashed=1;html=1;rounded=0;exitX=1;exitY=1;exitDx=0;exitDy=0;entryX=0.053;entryY=0.972;entryDx=0;entryDy=0;entryPerimeter=0;" parent="1" source="1cPQjbSQhpeD4azFQnfo-60" target="1cPQjbSQhpeD4azFQnfo-79" edge="1">
          <mxGeometry width="50" height="50" relative="1" as="geometry">
            <mxPoint x="820" y="350" as="sourcePoint" />
            <mxPoint x="820" y="280" as="targetPoint" />
          </mxGeometry>
        </mxCell>
        <mxCell id="woqamysOv7D3Uq7dfl2v-1" value="&lt;font style=&quot;font-size: 14px;&quot;&gt;Random Access&lt;/font&gt;" style="rounded=0;whiteSpace=wrap;html=1;shadow=0;dashed=1;dashPattern=12 12;fillColor=#b1ddf0;strokeColor=#10739e;" parent="1" vertex="1">
          <mxGeometry x="40" y="400" width="310" height="40" as="geometry" />
        </mxCell>
        <mxCell id="woqamysOv7D3Uq7dfl2v-4" value="&lt;font style=&quot;font-size: 14px;&quot;&gt;Block Transfer API&lt;/font&gt;" style="rounded=0;whiteSpace=wrap;html=1;shadow=0;dashed=1;dashPattern=12 12;fillColor=#fad7ac;strokeColor=#b46504;" parent="1" vertex="1">
          <mxGeometry x="371" y="400" width="399" height="40" as="geometry" />
        </mxCell>
        <mxCell id="woqamysOv7D3Uq7dfl2v-8" value="&lt;b&gt;&lt;font face=&quot;Comic Sans MS&quot; style=&quot;font-size: 19px;&quot;&gt;①&lt;/font&gt;&lt;/b&gt;" style="text;html=1;strokeColor=none;fillColor=none;align=center;verticalAlign=middle;whiteSpace=wrap;rounded=0;" parent="1" vertex="1">
          <mxGeometry x="300" y="360" width="60" height="30" as="geometry" />
        </mxCell>
        <mxCell id="woqamysOv7D3Uq7dfl2v-11" value="&lt;h1&gt;&lt;font style=&quot;font-size: 16px;&quot;&gt;&lt;b&gt;②&lt;/b&gt;&lt;/font&gt;&lt;/h1&gt;" style="text;html=1;strokeColor=none;fillColor=none;align=center;verticalAlign=middle;whiteSpace=wrap;rounded=0;" parent="1" vertex="1">
          <mxGeometry x="720" y="480" width="60" height="30" as="geometry" />
        </mxCell>
        <mxCell id="woqamysOv7D3Uq7dfl2v-12" value="&lt;h1&gt;&lt;font style=&quot;font-size: 16px;&quot;&gt;&lt;b&gt;③&lt;/b&gt;&lt;/font&gt;&lt;/h1&gt;" style="text;html=1;strokeColor=none;fillColor=none;align=center;verticalAlign=middle;whiteSpace=wrap;rounded=0;" parent="1" vertex="1">
          <mxGeometry x="720" y="359.99999999999994" width="60" height="30" as="geometry" />
        </mxCell>
      </root>
    </mxGraphModel>
  </diagram>
</mxfile>
